<svg width="216" height="216" viewBox="0 0 216 216" fill="none" xmlns="http://www.w3.org/2000/svg">
<g clip-path="url(#clip0_1_2)">
<rect x="3" y="3" width="209" height="209" rx="37" fill="#2295DD"/>
<path d="M197 54C191.51 59.8006 188.877 67.0155 181 70.4676C171.36 74.6923 160.267 71.8312 151 67.9884C131.004 59.6967 112.452 40.0401 89 47.8904C68.2392 54.8401 55.3757 80.4395 67.9691 100C72.2203 106.603 78.8721 111.498 86 114.572C89.5853 116.118 96.6078 120.1 100.566 118.356C103.832 116.918 103.078 110.871 104.133 108C106.652 101.149 112.796 96.376 120 95.3403C127.643 94.2414 136.71 97.5811 144 99.5748C157.72 103.327 175.176 105.697 186.7 95.3194C189.286 92.9903 191.327 90.1104 192.866 87C194.862 82.9641 196.296 78.4751 196.83 74C197.659 67.0526 197.547 60.9277 197 54ZM118 103C117.227 106.733 116.434 110.623 114.583 113.999C107.943 126.109 94.9813 124.589 84 120.388C65.1238 113.166 38.8005 100.511 23.9051 122.001C21.55 125.399 19.9624 129.094 18.6705 133C16.4359 139.756 16 145.941 16 153C22.5677 147.704 27.0462 140.895 36 139.329C45.6689 137.637 56.0106 142.449 64 147.425C84.5092 160.199 102.941 184.661 130 172.651C134.362 170.715 138.534 167.887 141.88 164.482C163.506 142.481 146.947 107.339 118 103Z" fill="white"/>
</g>
<defs>
<clipPath id="clip0_1_2">
<rect width="216" height="216" fill="white"/>
</clipPath>
</defs>
</svg>
